<svg width="27" height="16" viewBox="0 0 27 16" fill="none" xmlns="http://www.w3.org/2000/svg">
<path d="M10.8995 7.07898C10.8995 7.07898 13.4542 6.90261 13.4542 4.12861C13.4542 1.35101 11.364 0 8.71474 0H0V15.509H8.71474C8.71474 15.509 14.0362 15.6637 14.0362 10.9304C14.0349 10.9292 14.2671 7.07898 10.8995 7.07898ZM3.84021 2.7548H8.71474C8.71474 2.7548 9.90029 2.7548 9.90029 4.36737C9.90029 5.98234 9.20354 6.2163 8.41227 6.2163H3.84021V2.7548ZM8.46763 12.7518H3.84021V8.60636H8.71474C8.71474 8.60636 10.4809 8.58476 10.4809 10.7361C10.4809 12.5502 9.16168 12.7386 8.46763 12.7518ZM21.1306 3.94383C14.6884 3.94383 14.6938 9.90337 14.6938 9.90337C14.6938 9.90337 14.2536 15.8317 21.1306 15.8317C21.1306 15.8317 26.8599 16.1365 26.8599 11.7079H23.9135C23.9135 11.7079 24.0108 13.3769 21.2292 13.3769C21.2292 13.3769 18.2802 13.5592 18.2802 10.6773H26.953C26.9544 10.6761 27.9104 3.94383 21.1306 3.94383ZM23.7515 8.60636H18.2504C18.2504 8.60636 18.6096 6.2163 21.1968 6.2163C23.7839 6.2163 23.7515 8.60636 23.7515 8.60636ZM24.4361 0.910669H17.5267V2.82319H24.4361V0.910669Z" fill="#DEDEDE"/>
</svg>
