<svg width="24" height="17" viewBox="0 0 24 17" fill="none" xmlns="http://www.w3.org/2000/svg">
<path d="M24 1.92897C23.1174 2.25494 22.1693 2.47519 21.1726 2.57474C22.201 2.06181 22.9704 1.25453 23.3373 0.303521C22.371 0.781895 21.3135 1.11862 20.2107 1.29905C19.4691 0.639063 18.4868 0.201612 17.4164 0.0546153C16.3459 -0.0923815 15.2472 0.0593 14.2907 0.48611C13.3343 0.912921 12.5737 1.59098 12.127 2.41502C11.6803 3.23905 11.5725 4.16296 11.8203 5.0433C9.86244 4.96136 7.94711 4.53721 6.19863 3.79836C4.45016 3.05952 2.90761 2.02249 1.6711 0.754593C1.2483 1.36248 1.0052 2.06728 1.0052 2.81789C1.00473 3.49362 1.20437 4.15899 1.58641 4.75498C1.96846 5.35097 2.52109 5.85914 3.19528 6.23441C2.4134 6.21368 1.64877 6.03758 0.965031 5.72079V5.77365C0.964952 6.72138 1.35827 7.63994 2.07823 8.37348C2.7982 9.10701 3.80048 9.61034 4.915 9.79806C4.18968 9.96167 3.42923 9.98577 2.69109 9.86854C3.00555 10.684 3.61807 11.3971 4.44291 11.908C5.26776 12.4189 6.26363 12.702 7.29111 12.7177C5.5469 13.859 3.39282 14.478 1.17537 14.4753C0.782575 14.4754 0.39011 14.4563 0 14.418C2.25083 15.6243 4.87097 16.2644 7.5469 16.262C16.6053 16.262 21.5573 10.0086 21.5573 4.58518C21.5573 4.40898 21.552 4.23102 21.5425 4.05482C22.5057 3.47422 23.3372 2.75525 23.9979 1.93161L24 1.92897Z" fill="#DEDEDE"/>
</svg>
