<svg width="145" height="19" viewBox="0 0 145 19" fill="none" xmlns="http://www.w3.org/2000/svg">
<path d="M14.056 14.4H6.256L4.768 18H0.784L8.272 1.2H12.112L19.624 18H15.544L14.056 14.4ZM12.832 11.448L10.168 5.016L7.504 11.448H12.832ZM23.2924 18.192C22.6364 18.192 22.0844 17.968 21.6364 17.52C21.1884 17.072 20.9644 16.512 20.9644 15.84C20.9644 15.152 21.1884 14.6 21.6364 14.184C22.0844 13.752 22.6364 13.536 23.2924 13.536C23.9484 13.536 24.5004 13.752 24.9484 14.184C25.3964 14.6 25.6204 15.152 25.6204 15.84C25.6204 16.512 25.3964 17.072 24.9484 17.52C24.5004 17.968 23.9484 18.192 23.2924 18.192ZM28.4217 1.2H32.3097V18H28.4217V1.2ZM52.3549 1.2L45.0829 18H41.2429L33.9949 1.2H38.1949L43.3069 13.2L48.4909 1.2H52.3549ZM64.2591 14.4H56.4591L54.9711 18H50.9871L58.4751 1.2H62.3151L69.8271 18H65.7471L64.2591 14.4ZM63.0351 11.448L60.3711 5.016L57.7071 11.448H63.0351ZM86.9781 1.2V18H83.7861L75.4101 7.8V18H71.5701V1.2H74.7861L83.1381 11.4V1.2H86.9781ZM99.0889 18.288C97.3449 18.288 95.7689 17.912 94.3609 17.16C92.9689 16.408 91.8729 15.376 91.0729 14.064C90.2889 12.736 89.8969 11.248 89.8969 9.6C89.8969 7.952 90.2889 6.472 91.0729 5.16C91.8729 3.832 92.9689 2.792 94.3609 2.04C95.7689 1.288 97.3449 0.912 99.0889 0.912C100.833 0.912 102.401 1.288 103.793 2.04C105.185 2.792 106.281 3.832 107.081 5.16C107.881 6.472 108.281 7.952 108.281 9.6C108.281 11.248 107.881 12.736 107.081 14.064C106.281 15.376 105.185 16.408 103.793 17.16C102.401 17.912 100.833 18.288 99.0889 18.288ZM99.0889 14.976C100.081 14.976 100.977 14.752 101.777 14.304C102.577 13.84 103.201 13.2 103.649 12.384C104.113 11.568 104.345 10.64 104.345 9.6C104.345 8.56 104.113 7.632 103.649 6.816C103.201 6 102.577 5.368 101.777 4.92C100.977 4.456 100.081 4.224 99.0889 4.224C98.0969 4.224 97.2009 4.456 96.4009 4.92C95.6009 5.368 94.9689 6 94.5049 6.816C94.0569 7.632 93.8329 8.56 93.8329 9.6C93.8329 10.64 94.0569 11.568 94.5049 12.384C94.9689 13.2 95.6009 13.84 96.4009 14.304C97.2009 14.752 98.0969 14.976 99.0889 14.976ZM126.792 1.2L119.52 18H115.68L108.432 1.2H112.632L117.744 13.2L122.928 1.2H126.792ZM138.697 14.4H130.897L129.409 18H125.425L132.913 1.2H136.753L144.265 18H140.185L138.697 14.4ZM137.473 11.448L134.809 5.016L132.145 11.448H137.473Z" fill="#DEDEDE"/>
</svg>
