<svg width="27" height="18" viewBox="0 0 27 18" xmlns="http://www.w3.org/2000/svg">
<path d="M10.8995 7.61185C10.8995 7.61185 13.4542 7.4222 13.4542 4.43939C13.4542 1.4527 11.364 0 8.71474 0H0V16.6764H8.71474C8.71474 16.6764 14.0362 16.8428 14.0362 11.7532C14.0349 11.7519 14.2671 7.61185 10.8995 7.61185ZM3.84021 2.96217H8.71474C8.71474 2.96217 9.90029 2.96217 9.90029 4.69613C9.90029 6.43266 9.20354 6.68424 8.41227 6.68424H3.84021V2.96217ZM8.46763 13.7117H3.84021V9.25421H8.71474C8.71474 9.25421 10.4809 9.23099 10.4809 11.5442C10.4809 13.4949 9.16168 13.6975 8.46763 13.7117ZM21.1306 4.24071C14.6884 4.24071 14.6938 10.6489 14.6938 10.6489C14.6938 10.6489 14.2536 17.0235 21.1306 17.0235C21.1306 17.0235 26.8599 17.3512 26.8599 12.5892H23.9135C23.9135 12.5892 24.0108 14.3838 21.2292 14.3838C21.2292 14.3838 18.2802 14.5799 18.2802 11.481H26.953C26.9544 11.4797 27.9104 4.24071 21.1306 4.24071ZM23.7515 9.25421H18.2504C18.2504 9.25421 18.6096 6.68424 21.1968 6.68424C23.7839 6.68424 23.7515 9.25421 23.7515 9.25421ZM24.4361 0.97922H17.5267V3.03571H24.4361V0.97922Z" />
</svg>
