<svg width="24" height="18" viewBox="0 0 24 18" xmlns="http://www.w3.org/2000/svg">
<path d="M24 2.07413C23.1174 2.42463 22.1693 2.66146 21.1726 2.7685C22.201 2.21698 22.9704 1.34894 23.3373 0.326363C22.371 0.840737 21.3135 1.2028 20.2107 1.39681C19.4691 0.687156 18.4868 0.216785 17.4164 0.0587255C16.3459 -0.0993337 15.2472 0.0637627 14.2907 0.522693C13.3343 0.981624 12.5737 1.71071 12.127 2.59676C11.6803 3.48281 11.5725 4.47625 11.8203 5.42284C9.86244 5.33474 7.94711 4.87866 6.19863 4.08422C4.45016 3.28977 2.90761 2.1747 1.6711 0.811381C1.2483 1.46502 1.0052 2.22286 1.0052 3.02996C1.00473 3.75653 1.20437 4.47198 1.58641 5.11282C1.96846 5.75366 2.52109 6.30008 3.19528 6.70359C2.4134 6.6813 1.64877 6.49195 0.965031 6.15132V6.20815C0.964952 7.2272 1.35827 8.2149 2.07823 9.00364C2.7982 9.79238 3.80048 10.3336 4.915 10.5354C4.18968 10.7114 3.42923 10.7373 2.69109 10.6112C3.00555 11.488 3.61807 12.2548 4.44291 12.8041C5.26776 13.3535 6.26363 13.6579 7.29111 13.6748C5.5469 14.9019 3.39282 15.5676 1.17537 15.5646C0.782575 15.5647 0.39011 15.5442 0 15.5031C2.25083 16.8001 4.87097 17.4884 7.5469 17.4858C16.6053 17.4858 21.5573 10.7618 21.5573 4.93024C21.5573 4.74078 21.552 4.54943 21.5425 4.35997C22.5057 3.73567 23.3372 2.9626 23.9979 2.07697L24 2.07413Z" />
</svg>
